<?xml version="1.0" standalone="no"?>
<!DOCTYPE svg PUBLIC "-//W3C//DTD SVG 20010904//EN"
 "http://www.w3.org/TR/2001/REC-SVG-20010904/DTD/svg10.dtd">
<svg version="1.0" xmlns="http://www.w3.org/2000/svg"
 width="32.000000pt" height="32.000000pt" viewBox="0 0 32.000000 32.000000"
 preserveAspectRatio="xMidYMid meet">

<g transform="translate(0.000000,32.000000) scale(0.100000,-0.100000)"
fill="#000000" stroke="none">
<path d="M0 205 c0 -91 3 -115 14 -115 7 0 19 -15 27 -33 12 -31 26 -47 42
-47 11 0 9 78 -3 85 -17 11 -11 46 13 67 17 16 18 18 4 14 -19 -6 -16 5 10 36
9 10 11 18 4 22 -7 4 -7 15 -1 31 16 43 4 55 -56 55 l-54 0 0 -115z"/>
<path d="M168 282 c-10 -2 -18 -10 -18 -18 0 -8 -3 -13 -7 -13 -5 1 -15 1 -22
0 -32 -2 9 -24 44 -23 19 1 35 -3 35 -8 0 -6 -7 -10 -17 -10 -14 0 -14 -2 3
-21 19 -22 19 -22 -6 -17 -14 3 -34 9 -45 13 -14 5 -16 4 -7 -3 11 -7 10 -11
-5 -17 -16 -6 -16 -8 5 -16 15 -6 21 -13 16 -21 -4 -7 2 -4 14 6 19 17 22 17
22 3 0 -19 8 -21 29 -8 7 5 10 14 7 20 -4 6 -2 11 3 11 16 0 13 -57 -4 -90
-12 -23 -23 -29 -52 -32 -26 -2 -38 -8 -38 -18 0 -20 32 -25 62 -9 20 11 26
11 33 -1 8 -13 13 -12 39 3 16 9 36 17 45 17 13 0 16 14 16 90 l0 90 -37 -5
c-33 -5 -41 -2 -57 21 -11 15 -14 24 -7 19 9 -5 12 -2 9 10 -3 20 -34 33 -60
27z m69 -108 c-9 -9 -28 6 -21 18 4 6 10 6 17 -1 6 -6 8 -13 4 -17z"/>
<path d="M143 81 c-10 -16 -9 -20 3 -25 27 -10 34 -7 32 19 -3 30 -19 32 -35
6z"/>
</g>
</svg>
